<svg width="265" height="52" viewBox="0 0 265 52" fill="none" xmlns="http://www.w3.org/2000/svg">
<rect x="245.785" y="31" width="17" height="17" transform="rotate(9.42717 245.785 31)" fill="black"/>
<rect x="213" width="52" height="52" rx="26" fill="black"/>
<path d="M232.5 36C233.881 36 235 34.6569 235 33C235 31.3431 233.881 30 232.5 30C231.119 30 230 31.3431 230 33C230 34.6569 231.119 36 232.5 36Z" fill="#F2994A"/>
<path d="M245.78 18.5992C244.253 16.8664 242.102 16 239.327 16C236.69 16 234.631 16.8912 233.151 18.6715C231.717 20.4043 231 22.8118 231 25.8917C231 27.1771 231.119 28.3418 231.354 29.3901C231.797 29.1835 232.287 29.066 232.804 29.066C234.765 29.066 236.354 30.7201 236.354 32.7605C236.354 33.6763 236.032 34.5126 235.502 35.1581C236.618 35.7193 237.916 36 239.396 36C241.57 36 243.374 35.4472 244.808 34.3394C246.241 33.2812 247.213 31.7401 247.722 29.7184H244.253C243.698 29.7184 243.27 29.8391 242.97 30.0794C242.668 30.3208 242.495 30.5126 242.449 30.657C242.31 30.8014 242.182 30.9346 242.067 31.0542C241.951 31.1749 241.825 31.2594 241.686 31.3069C241.131 31.6442 240.46 31.8123 239.673 31.8123C238.47 31.8123 237.568 31.4275 236.967 30.657C236.319 29.935 235.972 28.8283 235.927 27.3357H247.931C247.976 27.2398 248 27.0717 248 26.8303C248 26.7829 248 26.6859 248 26.5415C248 26.3971 248 26.229 248 26.0361C248 22.8592 247.26 20.3806 245.78 18.5992ZM235.927 24.0866C235.972 22.8355 236.319 21.8732 236.967 21.1985C237.614 20.525 238.447 20.1877 239.465 20.1877C240.576 20.1877 241.431 20.525 242.033 21.1985C242.588 21.8246 242.911 22.787 243.004 24.0866H235.927Z" fill="white"/>
</svg>
