<svg width="18" height="20" viewBox="0 0 18 20" fill="none" xmlns="http://www.w3.org/2000/svg">
<path d="M2.5 20C3.88071 20 5 18.6569 5 17C5 15.3431 3.88071 14 2.5 14C1.11929 14 0 15.3431 0 17C0 18.6569 1.11929 20 2.5 20Z" fill="#F2994A"/>
<path d="M15.7795 2.59922C14.2532 0.866381 12.1021 0 9.32657 0C6.68979 0 4.63099 0.891242 3.15116 2.6715C1.71667 4.40434 1 6.81183 1 9.89166C1 11.1771 1.11946 12.3418 1.35448 13.3901C1.79743 13.1835 2.28702 13.066 2.80385 13.066C4.76472 13.066 6.35439 14.7201 6.35439 16.7605C6.35439 17.6763 6.03235 18.5126 5.50208 19.1581C6.61789 19.7193 7.91582 20 9.39588 20C11.5698 20 13.3739 19.4472 14.8084 18.3394C16.2415 17.2812 17.2129 15.7401 17.7225 13.7184H14.2533C13.6982 13.7184 13.2699 13.8391 12.9696 14.0794C12.668 14.3208 12.4945 14.5126 12.449 14.657C12.3104 14.8014 12.1824 14.9346 12.0674 15.0542C11.9514 15.1749 11.8246 15.2594 11.6858 15.3069C11.1307 15.6442 10.4596 15.8123 9.67342 15.8123C8.46999 15.8123 7.56806 15.4275 6.96741 14.657C6.31905 13.935 5.97205 12.8283 5.92671 11.3357H17.9308C17.9763 11.2398 18 11.0717 18 10.8303C18 10.7829 18 10.6859 18 10.5415C18 10.3971 18 10.229 18 10.0361C18 6.85917 17.2596 4.38059 15.7795 2.59922ZM5.92663 8.08662C5.97198 6.8355 6.31898 5.87317 6.96734 5.19853C7.61447 4.52499 8.44716 4.18767 9.46534 4.18767C10.5756 4.18767 11.431 4.52499 12.0328 5.19853C12.5879 5.82464 12.9108 6.78697 13.0041 8.08662H5.92663Z" fill="white"/>
</svg>
