<svg width="80" height="80" viewBox="0 0 80 80" fill="none" xmlns="http://www.w3.org/2000/svg">
<path opacity="0.45" d="M32 58V22L56 40M40 0C34.7471 0 29.5457 1.03463 24.6927 3.04482C19.8396 5.05501 15.4301 8.00139 11.7157 11.7157C4.21427 19.2172 0 29.3913 0 40C0 50.6087 4.21427 60.7828 11.7157 68.2843C15.4301 71.9986 19.8396 74.945 24.6927 76.9552C29.5457 78.9654 34.7471 80 40 80C50.6087 80 60.7828 75.7857 68.2843 68.2843C75.7857 60.7828 80 50.6087 80 40C80 34.7471 78.9654 29.5457 76.9552 24.6927C74.945 19.8396 71.9986 15.4301 68.2843 11.7157C64.5699 8.00139 60.1604 5.05501 55.3073 3.04482C50.4543 1.03463 45.2529 0 40 0Z" fill="#CCCCCC"/>
<path d="M32 22V58L56 40L32 22Z" fill="white"/>
</svg>
